<svg width="141" height="38" viewBox="0 0 141 38" fill="none" xmlns="http://www.w3.org/2000/svg">
<path d="M133 24H137V28H133V24Z" fill="#E91E63"/>
<path d="M2.619 9.1H4.995V28H2.619V9.1ZM9.91828 18.766C9.91828 17.38 10.3683 16.273 11.2683 15.445C12.1683 14.599 13.3023 14.176 14.6703 14.176C15.5163 14.176 16.3353 14.383 17.1273 14.797L19.5573 13.42L20.5833 15.283L18.7473 16.309C19.1973 17.011 19.4223 17.83 19.4223 18.766C19.4223 20.152 18.9723 21.259 18.0723 22.087C17.1723 22.897 16.0383 23.302 14.6703 23.302C13.7703 23.302 12.9873 23.14 12.3213 22.816C11.7273 23.104 11.4303 23.545 11.4303 24.139C11.4303 24.895 11.9433 25.273 12.9693 25.273H16.1823C17.4783 25.273 18.5133 25.597 19.2873 26.245C20.0613 26.893 20.4483 27.82 20.4483 29.026C20.4483 30.61 19.9083 31.789 18.8283 32.563C17.7483 33.337 16.3713 33.724 14.6973 33.724C12.9513 33.724 11.5473 33.328 10.4853 32.536C9.44128 31.744 8.91928 30.646 8.91928 29.242C8.91928 28.072 9.34228 27.127 10.1883 26.407C9.57628 25.885 9.27028 25.165 9.27028 24.247C9.27028 23.131 9.81928 22.294 10.9173 21.736C10.2513 20.926 9.91828 19.936 9.91828 18.766ZM15.8313 27.217H13.0773C12.8073 27.217 12.4743 27.199 12.0783 27.163C11.4843 27.631 11.1873 28.297 11.1873 29.161C11.1873 29.935 11.4843 30.556 12.0783 31.024C12.6903 31.492 13.5633 31.726 14.6973 31.726C15.8313 31.726 16.6863 31.492 17.2623 31.024C17.8383 30.574 18.1263 29.98 18.1263 29.242C18.1263 27.892 17.3613 27.217 15.8313 27.217ZM12.1323 18.766C12.1323 19.576 12.3753 20.215 12.8613 20.683C13.3473 21.133 13.9503 21.358 14.6703 21.358C15.3903 21.358 15.9933 21.133 16.4793 20.683C16.9653 20.215 17.2083 19.576 17.2083 18.766C17.2083 17.938 16.9653 17.29 16.4793 16.822C15.9933 16.354 15.3903 16.12 14.6703 16.12C13.9503 16.12 13.3473 16.354 12.8613 16.822C12.3753 17.29 12.1323 17.938 12.1323 18.766ZM24.5711 26.164C23.3831 24.778 22.7891 23.122 22.7891 21.196C22.7891 19.27 23.3831 17.623 24.5711 16.255C25.7771 14.869 27.3611 14.176 29.3231 14.176C31.2851 14.176 32.8601 14.869 34.0481 16.255C35.2541 17.623 35.8571 19.27 35.8571 21.196C35.8571 23.122 35.2541 24.778 34.0481 26.164C32.8601 27.532 31.2851 28.216 29.3231 28.216C27.3611 28.216 25.7771 27.532 24.5711 26.164ZM26.2181 17.713C25.4801 18.685 25.1111 19.846 25.1111 21.196C25.1111 22.546 25.4801 23.716 26.2181 24.706C26.9741 25.678 28.0091 26.164 29.3231 26.164C30.6371 26.164 31.6631 25.678 32.4011 24.706C33.1571 23.716 33.5351 22.546 33.5351 21.196C33.5351 19.846 33.1571 18.685 32.4011 17.713C31.6631 16.723 30.6371 16.228 29.3231 16.228C28.0091 16.228 26.9741 16.723 26.2181 17.713ZM47.3932 14.581L46.9342 16.606C46.4302 16.354 45.8992 16.228 45.3412 16.228C44.3152 16.228 43.4242 16.813 42.6682 17.983C41.9122 19.135 41.5342 20.755 41.5342 22.843V28H39.2662V14.392H41.5342V16.714C41.9302 15.958 42.5062 15.346 43.2622 14.878C44.0182 14.41 44.7742 14.176 45.5302 14.176C46.2682 14.176 46.8892 14.311 47.3932 14.581Z" fill="white"/>
<path d="M64.151 20.737V18.469H70.496V28H68.471L68.228 25.408C67.76 26.236 67.058 26.911 66.122 27.433C65.204 27.955 64.133 28.216 62.909 28.216C60.587 28.216 58.598 27.379 56.942 25.705C55.304 24.031 54.485 21.646 54.485 18.55C54.485 15.454 55.313 13.069 56.969 11.395C58.625 9.721 60.641 8.884 63.017 8.884C64.961 8.884 66.572 9.397 67.85 10.423C69.146 11.449 70.01 12.844 70.442 14.608L68.147 15.283C67.247 12.529 65.537 11.152 63.017 11.152C61.217 11.152 59.75 11.791 58.616 13.069C57.5 14.347 56.942 16.174 56.942 18.55C56.942 20.926 57.5 22.753 58.616 24.031C59.75 25.309 61.217 25.948 63.017 25.948C64.601 25.948 65.834 25.471 66.716 24.517C67.616 23.563 68.12 22.303 68.228 20.737H64.151ZM75.6463 26.164C74.4583 24.778 73.8643 23.122 73.8643 21.196C73.8643 19.27 74.4583 17.623 75.6463 16.255C76.8523 14.869 78.4363 14.176 80.3983 14.176C82.3603 14.176 83.9353 14.869 85.1233 16.255C86.3293 17.623 86.9323 19.27 86.9323 21.196C86.9323 23.122 86.3293 24.778 85.1233 26.164C83.9353 27.532 82.3603 28.216 80.3983 28.216C78.4363 28.216 76.8523 27.532 75.6463 26.164ZM77.2933 17.713C76.5553 18.685 76.1863 19.846 76.1863 21.196C76.1863 22.546 76.5553 23.716 77.2933 24.706C78.0493 25.678 79.0843 26.164 80.3983 26.164C81.7123 26.164 82.7383 25.678 83.4763 24.706C84.2323 23.716 84.6103 22.546 84.6103 21.196C84.6103 19.846 84.2323 18.685 83.4763 17.713C82.7383 16.723 81.7123 16.228 80.3983 16.228C79.0843 16.228 78.0493 16.723 77.2933 17.713ZM98.4684 14.581L98.0094 16.606C97.5054 16.354 96.9744 16.228 96.4164 16.228C95.3904 16.228 94.4994 16.813 93.7434 17.983C92.9874 19.135 92.6094 20.755 92.6094 22.843V28H90.3414V14.392H92.6094V16.714C93.0054 15.958 93.5814 15.346 94.3374 14.878C95.0934 14.41 95.8494 14.176 96.6054 14.176C97.3434 14.176 97.9644 14.311 98.4684 14.581ZM101.441 8.884H103.709V28H101.441V8.884ZM108.974 26.164C107.786 24.778 107.192 23.122 107.192 21.196C107.192 19.27 107.786 17.623 108.974 16.255C110.18 14.869 111.764 14.176 113.726 14.176C115.688 14.176 117.263 14.869 118.451 16.255C119.657 17.623 120.26 19.27 120.26 21.196C120.26 23.122 119.657 24.778 118.451 26.164C117.263 27.532 115.688 28.216 113.726 28.216C111.764 28.216 110.18 27.532 108.974 26.164ZM110.621 17.713C109.883 18.685 109.514 19.846 109.514 21.196C109.514 22.546 109.883 23.716 110.621 24.706C111.377 25.678 112.412 26.164 113.726 26.164C115.04 26.164 116.066 25.678 116.804 24.706C117.56 23.716 117.938 22.546 117.938 21.196C117.938 19.846 117.56 18.685 116.804 17.713C116.066 16.723 115.04 16.228 113.726 16.228C112.412 16.228 111.377 16.723 110.621 17.713ZM131.058 14.392H133.38L128.898 28H126.576L122.094 14.392H124.416L127.737 25.111L131.058 14.392Z" fill="white"/>
</svg>
