<svg width="260" height="260" viewBox="0 0 260 260" fill="none" xmlns="http://www.w3.org/2000/svg"><rect width="260" height="260" rx="50" fill="#2948FF"/><path fill="#E91E63" d="M219 171H239V191H219z"/><path d="M79.3166 70.6V191H56.9566V70.6H79.3166ZM188.491 191L186.599 178.1C180.292 187.617 170.546 192.376 157.359 192.376C141.879 192.376 128.75 186.987 117.971 176.208C107.192 165.429 101.803 150.293 101.803 130.8C101.803 111.307 107.364 96.1707 118.487 85.392C129.61 74.6133 143.14 69.224 159.079 69.224C172.036 69.224 182.815 72.7213 191.415 79.716C200.015 86.596 205.92 95.7693 209.131 107.236L188.663 112.568C182.471 97.432 172.61 89.864 159.079 89.864C148.874 89.864 140.56 93.3613 134.139 100.356C127.718 107.236 124.507 117.384 124.507 130.8C124.507 144.56 127.66 154.823 133.967 161.588C140.274 168.353 148.472 171.736 158.563 171.736C166.704 171.736 173.011 169.5 177.483 165.028C182.07 160.441 184.764 155.052 185.567 148.86H163.207V130.284H207.239V191H188.491Z" fill="#fff"/></svg>