<svg width="141" height="38" viewBox="0 0 141 38" fill="none" xmlns="http://www.w3.org/2000/svg">
<path d="M133 24H137V28H133V24Z" fill="#E91E63"/>
<path d="M2.538 28V9.1H5.508V28H2.538ZM9.86365 18.739C9.86365 17.353 10.3226 16.246 11.2406 15.418C12.1586 14.59 13.3196 14.176 14.7236 14.176C15.6236 14.176 16.4516 14.374 17.2076 14.77L19.7186 13.42L20.8526 15.445L19.0166 16.471C19.4126 17.155 19.6106 17.911 19.6106 18.739C19.6106 20.143 19.1516 21.259 18.2336 22.087C17.3156 22.897 16.1456 23.302 14.7236 23.302C13.9496 23.302 13.2206 23.167 12.5366 22.897C12.0506 23.167 11.8076 23.563 11.8076 24.085C11.8076 24.787 12.2756 25.138 13.2116 25.138H16.2086C17.5766 25.138 18.6656 25.471 19.4756 26.137C20.3036 26.803 20.7176 27.766 20.7176 29.026C20.7176 30.61 20.1416 31.789 18.9896 32.563C17.8556 33.337 16.4426 33.724 14.7506 33.724C12.9686 33.724 11.5196 33.337 10.4036 32.563C9.30565 31.789 8.75665 30.682 8.75665 29.242C8.75665 28.126 9.14365 27.208 9.91765 26.488C9.39565 25.966 9.13465 25.255 9.13465 24.355C9.13465 23.149 9.68365 22.231 10.7816 21.601C10.1696 20.845 9.86365 19.891 9.86365 18.739ZM15.6146 27.514H13.4276C12.9416 27.514 12.4826 27.487 12.0506 27.433C11.6546 27.847 11.4566 28.396 11.4566 29.08C11.4566 29.764 11.7446 30.304 12.3206 30.7C12.9146 31.096 13.7246 31.294 14.7506 31.294C15.7226 31.294 16.4786 31.114 17.0186 30.754C17.5766 30.394 17.8556 29.89 17.8556 29.242C17.8556 28.09 17.1086 27.514 15.6146 27.514ZM13.1846 17.146C12.7886 17.542 12.5906 18.073 12.5906 18.739C12.5906 19.405 12.7886 19.945 13.1846 20.359C13.5806 20.755 14.0936 20.953 14.7236 20.953C15.3716 20.953 15.8936 20.755 16.2896 20.359C16.6856 19.945 16.8836 19.405 16.8836 18.739C16.8836 18.073 16.6856 17.542 16.2896 17.146C15.8936 16.732 15.3716 16.525 14.7236 16.525C14.0936 16.525 13.5806 16.732 13.1846 17.146ZM24.1203 26.191C22.9143 24.841 22.3113 23.176 22.3113 21.196C22.3113 19.216 22.9143 17.551 24.1203 16.201C25.3443 14.851 26.9733 14.176 29.0073 14.176C31.0413 14.176 32.6613 14.851 33.8673 16.201C35.0913 17.551 35.7033 19.216 35.7033 21.196C35.7033 23.176 35.0913 24.841 33.8673 26.191C32.6613 27.541 31.0413 28.216 29.0073 28.216C26.9733 28.216 25.3443 27.541 24.1203 26.191ZM26.2533 18.01C25.6053 18.892 25.2813 19.954 25.2813 21.196C25.2813 22.438 25.6053 23.509 26.2533 24.409C26.9193 25.291 27.8373 25.732 29.0073 25.732C30.1773 25.732 31.0863 25.291 31.7343 24.409C32.4003 23.509 32.7333 22.438 32.7333 21.196C32.7333 19.954 32.4003 18.892 31.7343 18.01C31.0863 17.11 30.1773 16.66 29.0073 16.66C27.8373 16.66 26.9193 17.11 26.2533 18.01ZM41.4904 28H38.6824V14.392H41.4904V16.66C41.9404 15.868 42.5344 15.256 43.2724 14.824C44.0104 14.392 44.7574 14.176 45.5134 14.176C46.1254 14.176 46.7014 14.284 47.2414 14.5L46.7554 17.065C46.3234 16.795 45.7924 16.66 45.1624 16.66C44.1724 16.66 43.3084 17.209 42.5704 18.307C41.8504 19.387 41.4904 20.935 41.4904 22.951V28Z" fill="white"/>
<path d="M68.147 28L67.931 25.651C67.535 26.335 66.914 26.938 66.068 27.46C65.222 27.964 64.187 28.216 62.963 28.216C60.569 28.216 58.535 27.388 56.861 25.732C55.205 24.076 54.377 21.682 54.377 18.55C54.377 15.418 55.223 13.024 56.915 11.368C58.607 9.712 60.677 8.884 63.125 8.884C65.105 8.884 66.752 9.424 68.066 10.504C69.398 11.566 70.262 12.97 70.658 14.716L67.931 15.553C67.031 12.979 65.429 11.692 63.125 11.692C61.433 11.692 60.056 12.286 58.994 13.474C57.932 14.644 57.401 16.336 57.401 18.55C57.401 20.818 57.923 22.528 58.967 23.68C60.029 24.832 61.415 25.408 63.125 25.408C64.529 25.408 65.618 25.003 66.392 24.193C67.184 23.365 67.643 22.33 67.769 21.088H64.097V18.469H70.739V28H68.147ZM75.4855 26.191C74.2795 24.841 73.6765 23.176 73.6765 21.196C73.6765 19.216 74.2795 17.551 75.4855 16.201C76.7095 14.851 78.3385 14.176 80.3725 14.176C82.4065 14.176 84.0265 14.851 85.2325 16.201C86.4565 17.551 87.0685 19.216 87.0685 21.196C87.0685 23.176 86.4565 24.841 85.2325 26.191C84.0265 27.541 82.4065 28.216 80.3725 28.216C78.3385 28.216 76.7095 27.541 75.4855 26.191ZM77.6185 18.01C76.9705 18.892 76.6465 19.954 76.6465 21.196C76.6465 22.438 76.9705 23.509 77.6185 24.409C78.2845 25.291 79.2025 25.732 80.3725 25.732C81.5425 25.732 82.4515 25.291 83.0995 24.409C83.7655 23.509 84.0985 22.438 84.0985 21.196C84.0985 19.954 83.7655 18.892 83.0995 18.01C82.4515 17.11 81.5425 16.66 80.3725 16.66C79.2025 16.66 78.2845 17.11 77.6185 18.01ZM92.8556 28H90.0476V14.392H92.8556V16.66C93.3056 15.868 93.8996 15.256 94.6376 14.824C95.3756 14.392 96.1226 14.176 96.8786 14.176C97.4906 14.176 98.0666 14.284 98.6066 14.5L98.1206 17.065C97.6886 16.795 97.1576 16.66 96.5276 16.66C95.5376 16.66 94.6736 17.209 93.9356 18.307C93.2156 19.387 92.8556 20.935 92.8556 22.951V28ZM101.068 8.884H103.876V28H101.068V8.884ZM108.735 26.191C107.529 24.841 106.926 23.176 106.926 21.196C106.926 19.216 107.529 17.551 108.735 16.201C109.959 14.851 111.588 14.176 113.622 14.176C115.656 14.176 117.276 14.851 118.482 16.201C119.706 17.551 120.318 19.216 120.318 21.196C120.318 23.176 119.706 24.841 118.482 26.191C117.276 27.541 115.656 28.216 113.622 28.216C111.588 28.216 109.959 27.541 108.735 26.191ZM110.868 18.01C110.22 18.892 109.896 19.954 109.896 21.196C109.896 22.438 110.22 23.509 110.868 24.409C111.534 25.291 112.452 25.732 113.622 25.732C114.792 25.732 115.701 25.291 116.349 24.409C117.015 23.509 117.348 22.438 117.348 21.196C117.348 19.954 117.015 18.892 116.349 18.01C115.701 17.11 114.792 16.66 113.622 16.66C112.452 16.66 111.534 17.11 110.868 18.01ZM121.562 14.392H124.424L127.394 24.166L130.364 14.392H133.226L128.717 28H126.071L121.562 14.392Z" fill="white"/>
</svg>
